<svg xmlns="http://www.w3.org/2000/svg" width="616.752" height="179.847" viewBox="0 0 616.752 179.847">
  <g id="Group_4" data-name="Group 4" transform="translate(-89.692 -89.822)">
    <g id="Group_3" data-name="Group 3">
      <g id="Group_1" data-name="Group 1">
        <path id="Path_1" data-name="Path 1" d="M309.478,197.075c9.141,0,16.735-8.115,16.735-18.293s-7.594-18.294-16.735-18.294c-9.009,0-16.605,8.115-16.605,18.294s7.6,18.293,16.605,18.293M294.8,211.632a16.122,16.122,0,0,0,14.287,9.147c9.013,0,16.222-7.858,16.222-17.518v-.647l-.256-.129a26.225,26.225,0,0,1-18.668,8.118c-15.445,0-27.936-14.3-27.936-31.821,0-17.649,12.491-31.821,27.936-31.821a25.854,25.854,0,0,1,18.668,8.243l.256-.128v-6.442h14.416v54.627c0,17.261-12.742,31.177-29.994,31.177A30.987,30.987,0,0,1,282.7,218.849Z" fill="#00aecf"/>
        <path id="Path_2" data-name="Path 2" d="M391.736,170.407l.128-.257c-3.215-5.928-8.88-9.921-15.445-9.921-6.824,0-12.1,3.736-15.578,9.921l.129.257Zm-1.671,20.742,10.037,9.919a31.945,31.945,0,0,1-54.711-22.287c0-17.649,13.777-31.821,31.028-31.821,17.119,0,30.895,14.172,30.895,31.821a14.264,14.264,0,0,1-.257,3.606H359.812c0,6.7,7.851,14.56,16.864,14.56a18.892,18.892,0,0,0,13.389-5.8" fill="#00aecf"/>
        <path id="Path_3" data-name="Path 3" d="M427.8,178.782v30.145H413.383V148.634H427.8v7.342l.259.131a23.335,23.335,0,0,1,18.281-9.146c25.744,0,26.388,23.446,26.388,30.661v31.305H458.311V178.782c0-7.215-.131-18.294-15.06-18.294-8.5,0-15.453,8.115-15.453,18.294" fill="#00aecf"/>
        <path id="Path_4" data-name="Path 4" d="M510.032,160.487c-9.267,0-16.736,8.118-16.736,18.166,0,10.178,7.469,18.293,16.736,18.293,9.013,0,16.608-8.115,16.608-18.293,0-10.048-7.6-18.166-16.608-18.166m3.09,50.115a25.639,25.639,0,0,1-18.794-8.243l-.259.128v30.274H479.651V148.636h14.418v6.31l.259.131c5.151-5.025,11.457-8.117,18.794-8.117,15.45,0,27.938,14.172,27.938,31.821S528.572,210.6,513.122,210.6" fill="#00aecf"/>
        <path id="Path_5" data-name="Path 5" d="M576.966,196.946c9.141,0,16.607-7.987,16.607-18.165s-7.466-18.294-16.607-18.294c-9.011,0-16.608,8.118-16.608,18.294s7.6,18.165,16.608,18.165m-3.088-49.987a25.838,25.838,0,0,1,18.663,8.246l.26-.128v-6.442h14.418v60.294H592.8v-6.186l-.26-.256a26.227,26.227,0,0,1-18.663,8.115c-15.45,0-27.938-14.172-27.938-31.821s12.488-31.822,27.938-31.822" fill="#00aecf"/>
        <path id="Path_6" data-name="Path 6" d="M667.456,201.069a31.822,31.822,0,1,1,0-44.576l-10.17,9.532a16.911,16.911,0,0,0-12.614-5.539c-9.784,0-17.508,8.246-17.508,18.3s7.724,18.163,17.508,18.163a17.6,17.6,0,0,0,12.873-5.667Z" fill="#00aecf"/>
        <path id="Path_7" data-name="Path 7" d="M696.45,162.548v46.378H682.032V162.548h-10V148.636h10V121.58H696.45v27.055h9.994v13.913Z" fill="#00aecf"/>
      </g>
      <g id="Group_2" data-name="Group 2">
        <path id="Path_8" data-name="Path 8" d="M154.388,269.669l64.695-44.961V179.743l-64.695,44.617Z" fill="#073262"/>
        <path id="Path_9" data-name="Path 9" d="M219.074,134.77l-32.635,22.636-32.052-22.274-32.1,22.307-32.6-22.656,64.695-44.961Z" fill="#ff555f"/>
        <path id="Path_10" data-name="Path 10" d="M122.288,202.053V157.438l-32.6-22.654v89.923l64.7,44.961V224.36Z" fill="#00aecf"/>
        <path id="Path_11" data-name="Path 11" d="M154.388,179.714V224.36h0l32.2-22.205Z" fill="#00aecf"/>
        <path id="Path_12" data-name="Path 12" d="M219.083,179.747l0,0L186.438,157.4l-32.05,22.31,32.2,22.44,32.5-22.411Z" fill="#ff555f"/>
      </g>
    </g>
  </g>
</svg>
