<svg id="Layer_1" data-name="Layer 1" xmlns="http://www.w3.org/2000/svg" viewBox="0 0 6132.83 1422"><path d="M503.94,1422c-.46-2.54-1.63-5.32,2.33-6.25,2-.46,3.84-1.13,5.77-1.64,149.64-39.47,295.57-89.9,438.54-149,97.33-40.24,192.71-84.65,285-135.42,58.73-32.29,116.07-66.83,169.65-107.26,26.64-20.1,52.24-41.42,74-66.91,4.31-5,8.26-10.41,13-16.46-3-3-5.57-5.86-8.44-8.43-23.75-21.35-50.78-37.59-79.52-51.25-5.33-2.54-9.48-1.17-14.16.9q-104.27,46-212.17,82.55C1085.37,994.47,991.52,1022,895.82,1043c-5.87,1.29-12.23,4.76-17.79-1.11a14.57,14.57,0,0,1-1.19-1.72c1.09-5.73,6.24-6.25,10.44-7.76,34.16-12.24,68.6-23.77,102.51-36.68a2816.23,2816.23,0,0,0,312.93-141.62c2.91-1.54,5.77-3.19,10-5.56-3.09-1.3-4.89-2.34-6.83-2.83-39.81-10-80.25-16.09-121.07-20.09-51.52-5-103.12-5.68-154.76-3.65a1178.34,1178.34,0,0,0-146,15c-49.66,8.2-98.62,19.31-146.58,34.67a53,53,0,0,1-6.13,1.15c.26-5.78,4.63-6.2,7.5-7.56,32.21-15.2,64.07-31.28,96.88-45.09,87-36.59,177.35-61.49,270.59-75.8a1070.84,1070.84,0,0,1,203.24-12c53.69,2,106.92,8.25,159.42,19.94,4.85,1.09,8.76,1,13.12-1.88C1535,716,1586.88,680.39,1633.69,638c15.76-14.28,30-30.24,44.79-45.59,3.19-3.32,5.64-7.34,8.88-11.63-3.23-3-6-5.82-9-8.38-29.32-25-63.27-41.7-99.36-54.34-41.35-14.47-84-22.92-127.42-28.45-52.42-6.67-105-7.72-157.65-5.27-81.79,3.82-162.24,16.36-240.52,41.17-3.61,1.14-7.52,3.54-11.38-.7-.34-5.75,4.46-7.15,8.47-9.26a1012.92,1012.92,0,0,1,342.34-107.19,885,885,0,0,1,152.64-6.07c70.58,3.36,139.72,14.73,206.14,39.83,45.25,17.1,87.2,39.84,123,73,2.92,2.7,6.25,5,10,7.89-5.76,8.27-10.29,15.14-15.18,21.74-34.73,46.89-75.89,87.56-120.72,124.66-49.94,41.32-103.71,77.09-159.39,110.1-2.85,1.69-5.68,3.41-10.22,6.13,4.18,2,7.18,3.5,10.24,4.85,42,18.54,81.34,41.36,115.38,72.58,2.7,2.47,5.36,5,7.94,7.6.66.66.93,1.71,1.82,3.45-7.89,10.68-15.69,21.86-24.11,32.55-44.72,56.72-98.21,104.12-156.42,146.43-73,53.08-151.51,96.78-233,135.32-116.14,54.94-236.54,98.57-359.45,135.54-86.1,25.9-173,48.69-261.07,66.9-52.13,10.78-104.68,19.58-157,29.32a37.18,37.18,0,0,0-5.47,1.87Z" transform="translate(-1.68)"/><path d="M853.89,0c4.22.47,8.43,1.29,12.65,1.35,99.76,1.52,197.63,15,292.55,46.64,52.06,17.36,101.73,39.88,146.56,71.91,15.14,10.82,29,23.36,43.55,35.08,2.85,2.3,5.81,4.47,9,6.92-4.63,6.76-8.1,12-11.74,17.11-38.91,54.54-84.73,102.79-134.77,147.11-85,75.26-178.89,137.69-277.37,193.55-108.23,61.38-220.75,113.81-336,160.51A3808.87,3808.87,0,0,1,118,838.9c-34.14,8.79-68.61,16.33-102.95,24.3-4.27,1-9.07,2.9-13.37-3.06,3-1.44,5.4-3,8-3.84,158-52.15,311.21-116.22,460.72-189.1,140.89-68.68,277.65-144.68,407.32-233,56.22-38.31,110.78-78.81,160.85-125,18.87-17.42,36.93-35.64,52.83-55.88,3.49-4.45,6.8-9,11-14.6-4.22-3.91-8.2-7.78-12.35-11.44-36.26-31.94-78.27-54-123-71.14-51.51-19.74-104.91-32.15-159.36-40.3-33.57-5-67.25-9-101.2-10.16-18.29-.65-36.58-1.77-54.88-1.86-29.27-.15-58.6-.68-87.8.9-34.17,1.86-68.25,5.54-102.33,9a955.4,955.4,0,0,0-123,20.46c-34,8-67.59,17.62-101.36,26.54-2.79.74-5.53,1.64-8.41,2.51-2.06-5,1.74-5.65,4-6.81,17.84-9,35.61-18.13,53.67-26.68A1348.16,1348.16,0,0,1,628.83,20.57C667.8,13.65,707,8.05,746.55,5.68,775.77,3.93,805,2.83,834.27,1.36A59.11,59.11,0,0,0,841.89,0Z" transform="translate(-1.68)"/><path d="M5203.35,597.17C5160.51,452.85,5117.9,309.33,5075,164.86H5179.2c2.27,7.87,4.68,16.09,7,24.35,18.64,66.32,37.56,132.56,55.75,199,5.77,21.11,9.58,42.76,14.73,66.18,2.05-13.32,3.24-24.94,5.71-36.29,8.08-37,16.32-74.06,25.08-111,11.21-47.26,23-94.4,34.68-142.28h109.26a55.52,55.52,0,0,1,2.12,5.95c17.59,72.43,35.37,144.82,52.54,217.35,5,21.33,8.31,43.08,12.81,66.82,5.56-25.79,10.15-49.91,16.06-73.71,6.1-24.53,13.39-48.77,20.32-73.1,6.85-24,13.87-48,20.86-71.92s14-47.83,21-71.82h104.2L5551,597.08H5444.07a55.48,55.48,0,0,1-2.51-6.75c-17.75-73.76-35.7-147.48-53-221.36-4.37-18.73-6.45-38-9.6-57a39.91,39.91,0,0,0-3-10.76c-1.85,12.41-3.68,24.82-5.57,37.22-6.33,41.5-16.64,82.14-26.75,122.83-10.44,42-20.52,84-30.79,126.08-.78,3.19-1.78,6.33-2.78,9.86Z" transform="translate(-1.68)"/><path d="M2061.84,597.06V164.74c3.26-.22,6.14-.59,9-.59,55,0,110-.23,164.94.33,21.67.23,43.07,3.63,63.58,11.25,40,14.85,60,44.21,60.86,86.87.84,38.85-16.24,66.94-48.37,87.08-2.53,1.58-5,3.24-7.47,4.9-.19.13-.21.53-.49,1.33,3,1.23,6,2.58,9,3.71,15.14,5.57,29.14,13.13,41.31,23.81,21.26,18.67,32.61,42.27,36,70.31a141.27,141.27,0,0,1-3.72,52.42c-10.94,42.49-39.25,68.32-80,81.82-20.12,6.65-41,9.35-61.93,9.52-58,.48-116,.18-173.94.14C2067.73,597.64,2064.85,597.27,2061.84,597.06ZM2160.11,509c23.68,0,46.29.53,68.84-.25a107,107,0,0,0,29.26-5.38c17.14-5.65,26.61-18.19,27.77-36.44a126.84,126.84,0,0,0,0-15.84c-1.11-18.22-10.37-31-27.57-36.55a124.73,124.73,0,0,0-32.2-5.93c-19.94-.92-40-.28-59.95-.23a56.13,56.13,0,0,0-6.16.71Zm-.48-262.18c0,27-.12,52.79,0,78.62,21.42,0,41.38.47,61.29-.25,7.47-.27,15-2.79,22.21-5.26,8.94-3.08,15.07-9.61,18.3-18.61,9.53-26.58-2.39-47.63-29.94-52.85a36.2,36.2,0,0,0-5.95-.71q-28.93-.76-57.87-1.39C2165.46,246.31,2163.19,246.6,2159.63,246.81Z" transform="translate(-1.68)"/><path d="M4282.89,315.73h164V164.19c33-.14,65.14,0,97.07-.07,2.23,7.89,3.15,412.39,1.19,431.92-7,2-78.32,2.76-96.3,1a5.34,5.34,0,0,1-.77-.64,2,2,0,0,1-.45-.84,15.59,15.59,0,0,1-.44-2.94q-.18-93.45-.33-186.9a17.79,17.79,0,0,0-.71-2.5c-12.88-1.08-26.39-.36-39.84-.48-13.65-.13-27.31,0-41,0h-81.82v193c-8,2.37-84.68,2.91-98,.88V164.8h97.38Z" transform="translate(-1.68)"/><path d="M6132.64,164.6,5968.2,358.34l166.31,238.27c-3.32.51-5.11,1-6.9,1-34,0-68-.16-102,.22-6.51.07-9.42-3.13-12.54-7.75q-64.62-95.67-129.41-191.21c-2.78-4.11-5.6-8.2-10.22-12.18-.6,7.28-1.69,14.55-1.71,21.83q-.21,88-.08,176V597h-96.45c-2.09-7.3-3-409.72-1-431.35,6.78-2.21,82.65-2.85,97.48-.62V176.4q0,72,0,144c0,5.56.73,11.13,1.26,18.78,3.57-3.9,5.84-6.17,7.87-8.63Q5947,250.33,6013.05,170c3.08-3.74,6-6.38,11.48-6.34,34,.27,68,.13,102,.17C6128,163.87,6129.56,164.22,6132.64,164.6Z" transform="translate(-1.68)"/><path d="M4090.7,597.67h-11.2c-32,0-64-.23-95.95.17-7.2.09-11.35-2.3-15.31-8.19q-65.77-97.86-132-195.39a46.19,46.19,0,0,0-7.23-8.64c-1.5,13.84-1.07,27.58-1.14,41.29-.08,14.33,0,28.66,0,43V597.1h-98.07V164.72h97.79v175c3.37-3.24,5.31-4.77,6.84-6.63q66.1-80.18,132-160.55c5.16-6.33,10.39-8.75,18.51-8.62,30.31.48,60.63.19,90.95.19h12.31c-28.27,33.85-55.5,65.5-82.5,97.34-27.13,32-54.28,64-82.13,96.78Z" transform="translate(-1.68)"/><path d="M3242,597.37h-104.2q-23.18-66.4-46.28-132.6H2958.84Q2935.41,531,2912,597.27H2809q79.38-217,158.26-432.72h114ZM3064.18,381.22c-13.54-42-26.73-82.9-39.9-123.74l-39.1,123.74Z" transform="translate(-1.68)"/><path d="M5057.17,597.11H4953c-7.63-21.78-15.45-44-23.21-66.25q-11.51-32.94-23-66.06H4774.13l-46.87,132.4H4626.08c.49-8.35,141.34-396.82,156.75-432.38h113.66ZM4879.4,381.19c-13.33-41.39-26.55-82.45-39.83-123.71l-39.16,123.71Z" transform="translate(-1.68)"/><path d="M3602.7,590a214.79,214.79,0,0,1-50.36,13.45c-44.19,6.39-87.75,3.66-129.66-12.72-72.47-28.33-117.48-81.08-134.78-156.61-12.67-55.33-7.57-109.41,19.32-160.06,32.3-60.82,83.44-97.25,150.28-111.94,40-8.79,80-5.75,119.69,2.75,8.41,1.79,16.77,3.81,25.5,5.8v95.08c-3.58-1.42-6.62-2.47-9.53-3.79-18.58-8.44-37.67-15.1-58.17-17-72.24-6.55-137.46,32.53-149.67,109.4-6.7,42.2.12,81.82,27,116.14,23.48,30,55,45.21,92.94,47.88,32,2.25,62.1-4.36,90.68-18.6,1.74-.87,3.59-1.52,5.43-2.28C3603.73,505,3604.53,562.45,3602.7,590Z" transform="translate(-1.68)"/><path d="M2484.58,164.49h97.25c.48,23.14.16,46,.21,68.79.06,23,0,46,0,69V509.87h156.16c2.14,8.09,2.73,72.79,1,87.08h-254.6Z" transform="translate(-1.68)"/><path d="M4134.88,979.41h-20.57c-14.59-55.22-27.8-110.95-44.4-166q-19.9,82.8-39.88,166h-20.64q-25-103.55-50.31-208.48h21.71q19.13,81.9,38.24,163.8l2.17.15,40-163.89h20.2c14.33,54.35,27.1,109.46,41.53,164.13l2-.24c12.49-54.36,25-108.72,37.61-163.73h21.75Z" transform="translate(-1.68)"/><path d="M5331,771.18c2.8-.22,5.08-.55,7.36-.55,20.66,0,41.34-.56,62,.2a120.52,120.52,0,0,1,31.39,5c20.1,6.3,32.83,20.19,35.2,41.64,2.48,22.43-3.7,41.68-23.61,54.57-5,3.23-10.5,5.65-16.77,9,13.07,32.94,28.95,64.66,42.79,98.34H5444.7c-1.22-2.46-2.91-5.62-4.36-8.87-11.55-25.84-23.24-51.63-34.44-77.63-2.46-5.73-5.41-8.27-11.79-8-10.64.47-21.32.08-32,.17-2.55,0-5.11.52-8.72.91v93.51h-21.7C5329.53,972.65,5328.79,786,5331,771.18Zm22.93,92.69c11.08,1.76,51,1.58,59.59-.38a57.47,57.47,0,0,0,11.35-3.69c19.95-9.17,26.12-41.23,10.94-57.2a31.68,31.68,0,0,0-9.71-6.79c-4.19-1.88-8.8-3.61-13.31-3.84-16.91-.89-33.86-1.19-50.8-1.59a68,68,0,0,0-8.06.74Z" transform="translate(-1.68)"/><path d="M2062.42,770.37c9.95,0,19.21.08,28.46,0,4.81-.07,5.82,3.84,7.55,6.89q19.55,34.29,39,68.67,22.39,39.57,44.76,79.15c1,1.69,2.05,3.32,3,4.8a7.29,7.29,0,0,0,1.48-.4,1.16,1.16,0,0,0,.53-.67,22.89,22.89,0,0,0,.25-3q.09-76,.15-152a3.83,3.83,0,0,1,.24-1c.08-.32.17-.64.48-1.74h18.19c2,7,2.85,189.48.81,208.4-3.33.12-6.89,0-10.36.43-5.85.79-9-1.87-11.72-6.86-12.26-22.15-24.91-44.08-37.41-66.09q-29.62-52.14-59.27-104.25a15.87,15.87,0,0,0-6.28-6.52v183h-19.78Z" transform="translate(-1.68)"/><path d="M4828,875.92c.46,19.72-1.74,39.16-9.07,57.71-9.66,24.44-26.12,42.12-52.65,47.14-44.24,8.36-79-8.13-93.13-51.37-11.8-36.11-11.56-72.79.24-108.93,7.74-23.72,22.8-41.23,47.45-48.88a85.36,85.36,0,0,1,54.92,1c20,7.07,33.2,21.6,41.57,40.75C4826,833.28,4828.49,854.31,4828,875.92Zm-22.3-2.54c-.16-3.83-.15-9.51-.71-15.13-1.62-16.3-4.84-32.1-13.22-46.59-17.56-30.39-61.19-29.85-80.19-12-9,8.48-14.67,18.91-17.95,30.6-7.12,25.4-7.5,51.16-3.11,77.05a95.26,95.26,0,0,0,10.7,30.94c17.87,31.92,65.06,33.12,85.26,7.67,5.46-6.88,9.53-15.26,12.6-23.55C4804.69,907.27,4805.56,891.23,4805.7,873.38Z" transform="translate(-1.68)"/><path d="M6059.14,850.23,6131.63,980c-8.77,0-15.93,0-23.09,0-4.79,0-5.63-4.16-7.32-7.18Q6076,928,6051,883c-2.4-4.29-4.92-8.51-7.93-13.7-11.24,13.35-21.86,25.61-32,38.3-1.78,2.24-1.82,6.25-1.85,9.46-.17,17.32-.06,34.65-.1,52,0,3.25-.27,6.51-.45,10.36h-22.5V771.51h22.72c.54,17.27.17,34.76.24,52.24s0,35,1.89,53c1.89-2.11,3.88-4.14,5.65-6.35,23.9-29.94,48-59.71,71.48-90,5.7-7.34,11.62-11.23,20.94-9.88,3.78.55,7.71.09,13.86.09C6102.06,799,6079.46,822.88,6059.14,850.23Z" transform="translate(-1.68)"/><path d="M2853.64,770.91v19.25c-33.58.42-67,0-101.56.26-1.14,23.32-.32,46-.56,69.89h71.94v19.8h-71.22V960c11.59.81,23.46.26,35.28.36,11.66.1,23.31,0,35,0h36.65v18.81H2729.58V770.91Z" transform="translate(-1.68)"/><path d="M3424,979.37h-22.63v-189h-62.9V771h148.14c.24,2.35.56,4.26.6,6.17.09,3.93,0,7.87,0,13H3424Z" transform="translate(-1.68)"/></svg>