<?xml version="1.0" encoding="utf-8"?>
<!-- Generator: Adobe Illustrator 25.3.1, SVG Export Plug-In . SVG Version: 6.00 Build 0)  -->
<svg version="1.1" id="Copart_Logo" xmlns="http://www.w3.org/2000/svg" xmlns:xlink="http://www.w3.org/1999/xlink" x="0px"
	 y="0px" viewBox="0 0 182.7 47.2" style="enable-background:new 0 0 182.7 47.2;" xml:space="preserve">
<style type="text/css">
	.st0{display:none;fill:none;}
	.st1{fill-rule:evenodd;clip-rule:evenodd;fill:#FFFFFF;}
</style>
<g id="Group_2">
	<g id="Copart-Logo">
		<g id="Copart-Logo-RGB">
			<path id="Fill-11" class="st0" d="M24.5,22.1l-0.7,1c-0.6,1.1-1.4,2-2.4,2.8c-1.1,0.8-2.4,1.2-3.7,1.2c-1.2,0-2-0.3-2.3-0.9
				c-0.1-0.2-0.6-1.3,0.7-5.5c0.5-2,1.5-3.9,2.9-5.5c1.2-1.3,3-2.1,4.8-2.1c0.6,0,1.1,0.1,1.6,0.3c0.5,0.3,0.7,0.6,0.8,1.5l0.2,2
				h14.1c-1.4,1.5-2.5,3.2-3.3,5.1H24.5z M55.7,23.7c-0.3,1.4-1.1,2.7-2.1,3.7c-0.7,0.6-1.6,1-2.5,1c-0.7,0-0.9-0.3-1-0.4
				c0-0.1-0.4-0.7,0.3-2.8c0.3-1.3,1-2.6,2-3.5c0.7-0.6,1.6-1,2.6-1c0.7,0,0.8,0.2,0.9,0.4C56,21.1,56.4,21.7,55.7,23.7L55.7,23.7z
				 M83,25.2c0.3-1.2,0.9-2.4,1.9-3.2c0.6-0.5,1.3-0.8,2.1-0.8c0.4,0,0.4,0,0.5,0.2c0.1,0.8,0,1.7-0.3,2.4c-0.3,1.2-0.9,2.4-1.8,3.3
				c-0.5,0.5-1.1,0.7-1.7,0.8c-0.7,0-0.8-0.2-0.8-0.3C82.7,27.4,82.5,26.9,83,25.2L83,25.2z M101,24.8c0.3-1.1,0.5-2.2,0.7-3.4
				l4.3,0.4c-1.4,0.4-2.7,1.1-3.8,2C101.8,24.1,101.4,24.4,101,24.8L101,24.8z M179.3,21.6l3.4-11h-5.2L180.8,0l-16.4,6.8l-1.2,3.8
				h-3.6l-0.2,0.8c-1.5-0.9-3.2-1.3-5-1.3c-1.1,0-2.2,0.2-3.3,0.5h-13.6l-8,25.7l-0.1-0.5c-0.1-0.6-0.2-1.3-0.2-1.9
				c0.1-0.7,0.3-1.4,0.5-2.1l3.2-10.3c0.5-1.4,0.6-2.9,0.5-4.3c-0.1-1.5-0.6-3-1.6-4.1c-1.3-1.4-3.1-2.3-5-2.6
				c-2.4-0.4-4.8-0.6-7.2-0.5c-1.8,0-3.6,0.1-5.4,0.4c-1.6,0.2-3.1,0.6-4.5,1.2c-1.5,0.6-2.9,1.5-4.1,2.6c-1.2,1.2-2.3,2.6-3.1,4.1
				l-0.8,1.4c0-1.7-0.3-3.4-1-5c-1-2.2-3.4-4.8-8.7-4.8c-1.8,0-3.6,0.3-5.3,1l0.1-0.5H73.3l-3,9.6c-0.1-1.8-0.6-3.5-1.5-5
				c-2.1-3.4-6.2-5.1-12-5.1c-4.6-0.1-9,1.3-12.8,3.8c-1.2,0.8-2.3,1.8-3.3,2.8v-1.9c0-4.9-1.3-8.4-4-10.6c-2.4-2-5.9-3-10.9-3
				c-5.6-0.1-11,1.5-15.6,4.8c-4.5,3.3-7.7,8.1-9.2,13.4c-1.4,4.5-1.6,8.2-0.5,11.3c0.9,2.9,2.9,5.2,5.6,6.6
				c3.1,1.3,6.4,1.9,9.7,1.8c3,0.1,6-0.4,8.8-1.4c2.5-0.9,4.9-2.4,6.9-4.2c1.6-1.5,3-3.1,4.2-4.9c0.1,2.6,1.1,5.1,2.9,6.9
				c2.3,2.3,5.8,3.5,10.4,3.5c4.6,0.1,9.1-1.3,12.9-3.9c2-1.4,3.7-3.1,5.1-5.1l-5.4,17.3h14.3l3-9.5c0.2,0.1,0.4,0.2,0.5,0.3
				c1.5,0.7,3.1,1,4.7,0.9c3.6,0,7.1-1.3,9.9-3.5c1.4-1.1,2.6-2.4,3.6-3.9c-0.1,1.7,0.5,3.4,1.7,4.7c1.6,1.8,4.2,2.7,7.8,2.7
				c2.4,0,4.7-0.4,6.9-1.1c0.6-0.2,1.2-0.5,1.8-0.8l0.5,1.4h26.4l2.9-9.4c1.3-4.1,2.5-5.9,3.3-6.7c0.5-0.5,1.1-0.8,1.8-0.8
				c0.6,0,1.1,0.2,1.6,0.5l1.6,0.7l0.9-1.1l4.5,0l-1.6,5.3c-1,3-1.3,5.2-1.1,6.7c0.2,1.7,1.2,3.3,2.7,4.2c1.3,0.8,3.3,1.2,6.2,1.2
				c2.4,0,4.9-0.3,7.2-0.8l1.5-0.3l2.3-11.3l-3.6,1c-0.5,0.1-1,0.3-1.4,0.4l2-6.4L179.3,21.6z"/>
			<path id="Fill-12" class="st1" d="M35.8,24.3c-1.4,2.8-3.3,5.3-5.6,7.4c-1.8,1.6-3.9,2.9-6.2,3.7c-2.6,0.9-5.3,1.3-8,1.3
				c-3,0.1-6-0.4-8.7-1.6c-2.2-1.1-3.8-3.1-4.5-5.4c-0.9-2.5-0.7-5.8,0.5-9.8c1.4-4.9,4.3-9.2,8.4-12.3c4.2-2.9,9.2-4.5,14.2-4.3
				c4.3,0,7.5,0.8,9.4,2.5c2.7,2.2,3.2,5.7,3.2,8.9H28.5c0-1.4-0.8-2.6-2-3.3c-0.8-0.4-1.8-0.6-2.7-0.6c-2.4,0-4.7,1-6.4,2.7
				c-1.6,1.8-2.8,4-3.5,6.4c-1.1,3.6-1.3,6-0.5,7.3c0.7,1.3,2.2,2,4.2,2c1.8,0.1,3.6-0.5,5.1-1.6c1.2-0.9,2.1-2,2.9-3.3L35.8,24.3"
				/>
			<path id="Fill-13" class="st1" d="M57.9,24.4c-0.5,1.8-1.4,3.5-2.8,4.7c-1.1,0.9-2.4,1.5-3.9,1.5c-1.2,0.1-2.3-0.5-2.9-1.5
				c-0.6-1-0.6-2.5,0.1-4.6c0.4-1.8,1.4-3.4,2.8-4.6c1.1-0.9,2.5-1.5,4-1.5c1.1-0.1,2.2,0.5,2.8,1.5C58.5,20.9,58.5,22.4,57.9,24.4
				L57.9,24.4z M66.9,16.3c-1.7-2.7-5.1-4-10.1-4c-4.1-0.1-8.1,1.1-11.5,3.4c-3.1,2.1-5.5,5.2-6.6,8.8c-1.2,3.8-0.7,6.9,1.6,9.3
				c1.9,1.9,4.8,2.9,8.9,2.9c4.1,0.1,8.2-1.1,11.6-3.5c3.1-2.1,5.4-5.2,6.6-8.8C68.5,21.2,68.3,18.5,66.9,16.3z"/>
			<path id="Fill-14" class="st1" d="M89.3,24.3c-0.4,1.7-1.3,3.2-2.5,4.4c-0.9,0.8-2,1.3-3.2,1.3c-1.1,0.1-2.1-0.4-2.7-1.3
				c-0.6-0.9-0.5-2.3,0-4.1c0.4-1.7,1.3-3.2,2.6-4.3c1-0.9,2.2-1.3,3.5-1.4c1-0.1,1.9,0.4,2.4,1.3C89.9,21,89.9,22.4,89.3,24.3
				L89.3,24.3z M98.8,15.8c-1.1-2.4-3.3-3.6-6.7-3.6c-1.7,0-3.4,0.3-4.9,1c-1.6,0.8-3,1.7-4.3,2.9l1.1-3.4H75L64.9,45h9.6L78,33.9
				c0.7,0.9,1.6,1.7,2.6,2.1c1.2,0.5,2.5,0.8,3.8,0.7c3.1,0,6.1-1.1,8.5-3.1c2.8-2.3,4.8-5.4,5.8-8.9C99.8,21.2,99.8,18.2,98.8,15.8
				L98.8,15.8z"/>
			<path id="Fill-15" class="st1" d="M119.8,26.5c-0.3,1-0.8,1.9-1.4,2.7c-0.7,0.8-1.5,1.4-2.5,1.8c-1,0.5-2.1,0.7-3.2,0.7
				c-0.8,0.1-1.5-0.2-2.1-0.7c-0.4-0.5-0.5-1.1-0.2-1.7c0.2-0.7,0.7-1.3,1.3-1.6c1.3-0.7,2.7-1.2,4.1-1.4c1.6-0.4,3-0.7,4.5-1.2
				L119.8,26.5L119.8,26.5z M131.3,17.4c0-1-0.4-2-1.1-2.8c-1-1-2.3-1.7-3.8-1.9c-2.2-0.4-4.5-0.5-6.8-0.5c-1.7,0-3.4,0.1-5.1,0.4
				c-1.4,0.2-2.7,0.5-3.9,1.1c-1.3,0.5-2.5,1.3-3.5,2.2c-1.1,1-1.9,2.2-2.6,3.6l8.9,0.9c0.5-0.9,1.3-1.6,2.1-2.1
				c1.2-0.5,2.5-0.7,3.8-0.7c1.2,0,2,0.2,2.4,0.7c0.3,0.7,0.3,1.6,0,2.3c-1.3,0.4-2.6,0.8-3.7,1.1c-1.2,0.2-3.6,0.7-7.4,1.4
				c-2.5,0.3-4.9,1.1-7,2.5c-1.4,1.1-2.5,2.6-3,4.4c-0.7,1.6-0.3,3.5,0.8,4.8c1.1,1.3,3.2,2,6.2,2c2.1,0,4.2-0.3,6.2-1
				c1.6-0.6,3.1-1.4,4.5-2.4c-0.1,0.5-0.1,1-0.1,1.5c0,0.5,0.1,0.9,0.3,1.4h8.9c-0.2-0.8-0.2-1.6-0.2-2.4c0.1-0.9,0.3-1.7,0.6-2.6
				l3.2-10.3C131.2,19.7,131.4,18.5,131.3,17.4L131.3,17.4z"/>
			<path id="Fill-16" class="st1" d="M139.2,12.8h8.9l-1.2,3.8c1.1-1.3,2.3-2.5,3.8-3.4c1.1-0.6,2.4-1,3.7-0.9c1.5,0,3,0.4,4.2,1.2
				l-4.9,6.4c-0.8-0.4-1.6-0.6-2.5-0.7c-1.3,0-2.5,0.5-3.4,1.4c-1.4,1.4-2.7,3.9-3.9,7.7l-2.5,7.8h-9.6L139.2,12.8"/>
			<path id="Fill-17" class="st1" d="M177.2,3.9l-2.8,8.9h5.2l-2,6.5h-5.3l-2.6,8.3c-0.3,0.6-0.4,1.3-0.3,2c0.2,0.5,0.6,0.8,1.4,0.8
				c1.1-0.1,2.1-0.3,3.1-0.6l-1.3,6.2c-2.2,0.5-4.5,0.7-6.8,0.7c-2.4,0-4.1-0.3-5-0.9c-0.9-0.6-1.6-1.5-1.7-2.6
				c-0.2-1.2,0.1-3.1,1-5.7l2.6-8.2h-3.5l2-6.5h3.6l1.3-4.3L177.2,3.9"/>
		</g>
	</g>
</g>
</svg>
