<?xml version="1.0" encoding="utf-8"?>
<!-- Generator: Adobe Illustrator 25.3.1, SVG Export Plug-In . SVG Version: 6.00 Build 0)  -->
<svg version="1.1" id="Layer_1" xmlns="http://www.w3.org/2000/svg" xmlns:xlink="http://www.w3.org/1999/xlink" x="0px" y="0px"
	 viewBox="0 0 182.7 53.3" style="enable-background:new 0 0 182.7 53.3;" xml:space="preserve">
<style type="text/css">
	.st0{fill:#FFFFFF;}
</style>
<g id="Genpact_Logo" transform="translate(0.876 0.609)">
	<g id="Group_1" transform="translate(55.927 9.409)">
		<path id="Path_1" class="st0" d="M8.3,21.8c3,0.3,5.7-1.9,5.9-4.9c0.3-3-1.9-5.7-4.9-5.9c-3-0.3-5.7,1.9-5.9,4.9
			c0,0.2,0,0.3,0,0.5C3.3,19.2,5.5,21.6,8.3,21.8 M4,26.1c0.8,1.6,2.4,2.7,4.2,2.7c2.8-0.1,4.9-2.4,4.8-5.2l0,0v-0.2h-0.1
			c-1.4,1.5-3.4,2.4-5.5,2.4c-4.6,0-8.3-4.2-8.3-9.4S2.8,7,7.4,7c2.1,0,4.1,0.9,5.5,2.4H13v-2h4.3v16.2c0.2,4.9-3.7,9.1-8.6,9.2
			c-0.1,0-0.2,0-0.3,0c-3.3,0-6.4-1.7-8-4.6L4,26.1z"/>
		<path id="Path_2" class="st0" d="M32.7,13.9L32.7,13.9c-0.8-1.8-2.6-3-4.5-3c-2,0-3.8,1.2-4.6,2.9v0.1H32.7z M32.2,20l3,2.9
			c-3.7,3.7-9.7,3.8-13.4,0.1C20,21.3,19,18.9,19,16.3c-0.1-5.1,3.9-9.3,8.9-9.4c5.1-0.1,9.3,3.9,9.4,8.9c0,0.2,0,0.3,0,0.5
			c0,0.4,0,0.7-0.1,1.1h-14c0,2,2.3,4.3,5,4.3C29.7,21.7,31.2,21.1,32.2,20"/>
		<path id="Path_3" class="st0" d="M43.4,16.3v8.9h-4.3V7.4h4.3v2.2h0.1c1.3-1.7,3.3-2.7,5.4-2.7c7.6,0,7.8,6.9,7.8,9.1v9.3h-4.3
			v-8.9c0-2.1,0-5.4-4.5-5.4C45.4,10.9,43.4,13.3,43.4,16.3"/>
		<path id="Path_4" class="st0" d="M67.7,10.9c-3-0.3-5.6,1.9-5.9,4.9c-0.3,3,1.9,5.6,4.9,5.9s5.6-1.9,5.9-4.9c0-0.2,0-0.3,0-0.5
			C72.8,13.5,70.6,11.1,67.7,10.9 M68.7,25.8c-2.1,0-4.1-0.9-5.6-2.4H63v9h-4.3v-25H63v1.9h0.1c1.5-1.5,3.5-2.4,5.6-2.4
			c4.6,0,8.3,4.2,8.3,9.4S73.2,25.8,68.7,25.8"/>
		<path id="Path_5" class="st0" d="M87.6,21.7c3-0.3,5.2-2.9,4.9-5.9c-0.2-2.6-2.3-4.6-4.9-4.9c-3,0.3-5.2,2.9-4.9,5.9
			C82.9,19.4,85,21.5,87.6,21.7 M86.7,6.9c2.1,0,4.1,0.9,5.5,2.4h0.1V7.4h4.3v17.9h-4.3v-1.8l-0.1-0.1c-1.4,1.5-3.4,2.4-5.5,2.4
			c-4.6,0-8.3-4.2-8.3-9.4S82.1,6.9,86.7,6.9"/>
		<path id="Path_6" class="st0" d="M114.4,22.9c-3.6,3.7-9.6,3.8-13.3,0.1c-3.7-3.6-3.8-9.6-0.1-13.3c3.6-3.7,9.6-3.8,13.3-0.1
			l0.1,0.1l-3,2.8c-1-1.1-2.3-1.6-3.7-1.6c-3,0.1-5.3,2.7-5.1,5.7c0.1,2.8,2.4,5,5.1,5.1c1.4,0,2.8-0.6,3.8-1.7L114.4,22.9z"/>
		<path id="Path_7" class="st0" d="M123,11.5v13.7h-4.3V11.5h-3V7.4h3v-8h4.3v8h3v4.1H123z"/>
	</g>
	<g id="Group_2" transform="translate(0 0)">
		<path id="Path_8" class="st0" d="M18.3,52.7l19.2-13.3V26L18.3,39.3V52.7z"/>
		<path id="Path_9" class="st0" d="M37.5,12.7l-9.7,6.7l-9.5-6.6l-9.5,6.6l-9.7-6.7L18.3-0.6L37.5,12.7z"/>
		<path id="Path_10" class="st0" d="M8.8,32.6V19.4l-9.7-6.7v26.6l19.2,13.3V39.3L8.8,32.6z"/>
		<path id="Path_11" class="st0" d="M18.3,26v13.2l0,0l9.5-6.6L18.3,26z"/>
		<path id="Path_12" class="st0" d="M37.5,26L37.5,26l-9.7-6.6L18.3,26l9.5,6.6L37.5,26L37.5,26z"/>
	</g>
</g>
</svg>
