<svg id="Layer_1" data-name="Layer 1" xmlns="http://www.w3.org/2000/svg" viewBox="0 0 600 600"><defs><style>.cls-1{fill:#fefefe;}.cls-2{fill:#4b80c2;}.cls-3{fill:#aea8a8;}</style></defs><path class="cls-1" d="M600,374V600H191c4.34-.76,8.69-1.45,13-2.28,51.25-9.8,91.11-36.58,118.92-80.73a172.25,172.25,0,0,0,26.91-95.05c0-2.16.14-4.32.14-6.49q0-167.7,0-335.4h68V196.48c2.54-2.23,4.19-3.62,5.77-5.08q40.22-37.11,80.41-74.24c13.31-12.31,26.52-24.73,39.78-37.11L600,80v40L461.9,247Zm-55.82,47.77L418.34,305.67v116.1Z" transform="translate(0)"/><path class="cls-2" d="M350,80.05q0,167.7,0,335.4c0,2.17-.09,4.33-.14,6.49H270.14c-.05-2-.13-4-.13-6q0-138.69,0-277.38v-4.9h-1c-31.2,51.42-62.41,102.84-94,154.88l-94.07-155-.91.29V341.94L0,342V80q68.24,0,136.48,0a44,44,0,0,1,6.3.89L175,134.2l32.22-53.27A26.12,26.12,0,0,1,212,80Q281,80,350,80.05Z" transform="translate(0)"/><path class="cls-3" d="M270.14,422h79.71A172.25,172.25,0,0,1,322.94,517c-27.81,44.15-67.67,70.93-118.92,80.73-4.33.83-8.68,1.52-13,2.28H158a17.42,17.42,0,0,0-3.14-1c-18.91-2.54-37.22-7.28-54.31-15.85C49,557.28,16.94,516,4,459.85c-1.66-7.21-2.7-14.56-4-21.85V342L80,342H191.66v80.26H80.13c0,2.83-.18,5,0,7.14,2.77,27.68,13.94,51,35.56,69a92.63,92.63,0,0,0,124.49-5.21C260,473.59,269.44,449.59,270.14,422Z" transform="translate(0)"/><path class="cls-3" d="M142.78,80.93a44,44,0,0,0-6.3-.89Q68.25,80,0,80V0H600V80l-56.06,0H350q-69,0-138,0a26.12,26.12,0,0,0-4.8.89,16.84,16.84,0,0,0-3.74-.86q-28.48-.09-57,0A16.84,16.84,0,0,0,142.78,80.93Z" transform="translate(0)"/><path class="cls-2" d="M600,374,461.9,247,600,120Z" transform="translate(0)"/><path class="cls-1" d="M0,438c1.32,7.29,2.36,14.64,4,21.85C16.94,516,49,557.28,100.55,583.13c17.09,8.57,35.4,13.31,54.31,15.85a17.42,17.42,0,0,1,3.14,1H0Z" transform="translate(0)"/><path class="cls-2" d="M418,80.06h126c-13.26,12.38-26.47,24.8-39.78,37.11Q464,154.33,423.75,191.4c-1.58,1.46-3.23,2.85-5.77,5.08Z" transform="translate(0)"/><path class="cls-2" d="M544.18,421.77H418.34V305.67Z" transform="translate(0)"/><path class="cls-1" d="M270.14,422c-.7,27.64-10.14,51.64-29.93,71.24a92.63,92.63,0,0,1-124.49,5.21c-21.62-18-32.79-41.37-35.56-69-.21-2.14,0-4.31,0-7.14H191.66V342H80V133.8l.91-.29,94.07,155c31.57-52,62.78-103.46,94-154.88h1v4.9q0,138.69,0,277.38C270,418,270.09,420,270.14,422Z" transform="translate(0)"/><path class="cls-1" d="M142.78,80.93a16.84,16.84,0,0,1,3.74-.86q28.48-.09,57,0a16.84,16.84,0,0,1,3.74.86L175,134.2Z" transform="translate(0)"/></svg>