<svg width="18" height="11" viewBox="0 0 18 11" fill="none" xmlns="http://www.w3.org/2000/svg">
<path d="M8.99982 10.8333C8.78048 10.8346 8.56304 10.7926 8.35998 10.7096C8.15691 10.6267 7.97222 10.5045 7.81649 10.35L1.14982 3.68333C0.994423 3.52793 0.871156 3.34345 0.787055 3.14041C0.702954 2.93737 0.659668 2.71976 0.659668 2.49999C0.659668 2.28023 0.702954 2.06261 0.787055 1.85958C0.871156 1.65654 0.994423 1.47206 1.14982 1.31666C1.30522 1.16126 1.4897 1.03799 1.69274 0.953893C1.89578 0.869792 2.11339 0.826508 2.33315 0.826508C2.55292 0.826508 2.77053 0.869792 2.97357 0.953893C3.17661 1.03799 3.36109 1.16126 3.51649 1.31666L8.99982 6.83333L14.4998 1.53333C14.6531 1.36284 14.84 1.22583 15.0487 1.13085C15.2574 1.03588 15.4834 0.98498 15.7127 0.981348C15.9419 0.977716 16.1695 1.02142 16.381 1.10974C16.5926 1.19806 16.7837 1.32909 16.9424 1.49463C17.101 1.66017 17.2238 1.85666 17.303 2.07182C17.3823 2.28698 17.4163 2.51617 17.4029 2.74506C17.3895 2.97396 17.329 3.19763 17.2253 3.40209C17.1215 3.60655 16.9767 3.7874 16.7998 3.93333L10.1332 10.3667C9.82836 10.6605 9.42316 10.8274 8.99982 10.8333Z" fill="#4B80C3"/>
</svg>
