<svg width="25" height="25" viewBox="0 0 25 25" fill="none" xmlns="http://www.w3.org/2000/svg">
<path d="M19.7915 18.75H5.20817C4.63287 18.75 4.1665 19.2164 4.1665 19.7917C4.1665 20.367 4.63287 20.8333 5.20817 20.8333H19.7915C20.3668 20.8333 20.8332 20.367 20.8332 19.7917C20.8332 19.2164 20.3668 18.75 19.7915 18.75Z" fill="#4B80C3"/>
<path d="M4.1665 17.7083V19.7916C4.1665 20.3669 4.63287 20.8333 5.20817 20.8333C5.78347 20.8333 6.24984 20.3669 6.24984 19.7916V17.7083C6.24984 17.133 5.78347 16.6666 5.20817 16.6666C4.63287 16.6666 4.1665 17.133 4.1665 17.7083Z" fill="#4B80C3"/>
<path d="M18.75 17.7083V19.7916C18.75 20.3669 19.2164 20.8333 19.7917 20.8333C20.367 20.8333 20.8333 20.3669 20.8333 19.7916V17.7083C20.8333 17.133 20.367 16.6666 19.7917 16.6666C19.2164 16.6666 18.75 17.133 18.75 17.7083Z" fill="#4B80C3"/>
<path d="M12.5001 15.6251C12.2841 15.6267 12.073 15.5612 11.8959 15.4376L7.72926 12.5001C7.50469 12.3408 7.35232 12.099 7.30548 11.8277C7.25863 11.5564 7.32111 11.2776 7.47926 11.0522C7.5582 10.9395 7.65868 10.8436 7.77489 10.77C7.8911 10.6964 8.02074 10.6465 8.15633 10.6233C8.29191 10.6 8.43076 10.6039 8.56485 10.6346C8.69895 10.6653 8.82563 10.7222 8.93759 10.8022L12.5001 13.2918L16.0418 10.6251C16.2628 10.4593 16.5406 10.3882 16.8141 10.4272C17.0876 10.4663 17.3343 10.6124 17.5001 10.8334C17.6659 11.0544 17.737 11.3322 17.698 11.6057C17.6589 11.8792 17.5128 12.126 17.2918 12.2918L13.1251 15.4168C12.9448 15.552 12.7255 15.6251 12.5001 15.6251Z" fill="#4B80C3"/>
<path d="M12.5002 13.5417C12.2239 13.5417 11.9589 13.4319 11.7636 13.2366C11.5682 13.0412 11.4585 12.7763 11.4585 12.5V4.16667C11.4585 3.8904 11.5682 3.62545 11.7636 3.4301C11.9589 3.23475 12.2239 3.125 12.5002 3.125C12.7764 3.125 13.0414 3.23475 13.2367 3.4301C13.4321 3.62545 13.5418 3.8904 13.5418 4.16667V12.5C13.5418 12.7763 13.4321 13.0412 13.2367 13.2366C13.0414 13.4319 12.7764 13.5417 12.5002 13.5417Z" fill="#4B80C3"/>
</svg>
