<svg width="25" height="25" viewBox="0 0 25 25" fill="none" xmlns="http://www.w3.org/2000/svg">
<path d="M19.7917 11.4584H13.5417V5.20835C13.5417 4.93209 13.4319 4.66713 13.2366 4.47178C13.0412 4.27643 12.7763 4.16669 12.5 4.16669C12.2238 4.16669 11.9588 4.27643 11.7635 4.47178C11.5681 4.66713 11.4584 4.93209 11.4584 5.20835V11.4584H5.20835C4.93209 11.4584 4.66713 11.5681 4.47178 11.7635C4.27643 11.9588 4.16669 12.2238 4.16669 12.5C4.16669 12.7763 4.27643 13.0412 4.47178 13.2366C4.66713 13.4319 4.93209 13.5417 5.20835 13.5417H11.4584V19.7917C11.4584 20.068 11.5681 20.3329 11.7635 20.5283C11.9588 20.7236 12.2238 20.8334 12.5 20.8334C12.7763 20.8334 13.0412 20.7236 13.2366 20.5283C13.4319 20.3329 13.5417 20.068 13.5417 19.7917V13.5417H19.7917C20.068 13.5417 20.3329 13.4319 20.5283 13.2366C20.7236 13.0412 20.8334 12.7763 20.8334 12.5C20.8334 12.2238 20.7236 11.9588 20.5283 11.7635C20.3329 11.5681 20.068 11.4584 19.7917 11.4584Z" fill="#99DA98"/>
</svg>
